# xmcd CD database file
#
# Track frame offsets:
#	183
#	16948
#	35300
#	60993
#	80910
#	101508
#	128430
#	143655
#	163535
#	181645
#	210330
#	236483
#	247395
#	263998
#	281158
#	303005
#	320130
#	334315
#
# Disc length: 4553 seconds
#
# Revision: 7
# Processed by: cddbd v1.5.2PL0 Copyright (c) Steve Scherf et al.
# Submitted via: CDex 1.51
#
DISCID=f511c712
DTITLE=Various Artist - It's Blues Vol. 3
DYEAR=1992
DGENRE=Blues
TTITLE0=Hammond, John - I've Got Love If You Want It
TTITLE1=Atkins, Chet and Mark Knopfler - Poor Boy Blues
TTITLE2=Staples, Pops - Miss Cocaine
TTITLE3=Cowboy Junkies - Me And The Devil
TTITLE4=Lee, Alvin - Real Life Blues
TTITLE5=Santana, Carlos - Blues For Salvador
TTITLE6=Washington, Walter 'Wolfman' - Girl I Wanna Dance With You
TTITLE7=Winter, Johnny - If You Got A Good Woman
TTITLE8=Black Crowes - Hotel Illness
TTITLE9=Turner, Tina - Night Time Is The Right Time
TTITLE10=Moore, Gary - Story Of The Blues
TTITLE11=Redbone, Leon - Laughin'  Blues
TTITLE12=Fame, Georgie - Passed Me By
TTITLE13=Los Lobos - Just A Man
TTITLE14=Marsalis, Brandford, Quartet - Harlem Blues
TTITLE15=Moyet, Alison - Rise
TTITLE16=Upchurch, Phil - Going Down Slow
TTITLE17=Kaas, Patricia - Un Dernier Blues
EXTD=YEAR: 1992
EXTT0=
EXTT1=
EXTT2=
EXTT3=
EXTT4=
EXTT5=
EXTT6=
EXTT7=
EXTT8=
EXTT9=
EXTT10=
EXTT11=
EXTT12=
EXTT13=
EXTT14=
EXTT15=
EXTT16=
EXTT17=
PLAYORDER=
